<?xml version="1.0" standalone="no"?><!DOCTYPE svg PUBLIC "-//W3C//DTD SVG 1.1//EN" "http://www.w3.org/Graphics/SVG/1.1/DTD/svg11.dtd"><svg t="1776485284905" class="icon" viewBox="0 0 1024 1024" version="1.1" xmlns="http://www.w3.org/2000/svg" p-id="7001" width="36" height="36" xmlns:xlink="http://www.w3.org/1999/xlink"><path d="M806.527229 372.155117c-3.727285 3.727285-5.160857 9.031499-4.013999 14.048999l108.664706 471.931681c2.293714 8.744785-0.430071 16.48607-8.314713 22.793784l-88.451351 66.087639c-3.153857 2.723786-7.597928 4.157357-13.045499 4.157357-1.576928 0-3.153857-0.286714-4.730786-0.716786-7.0245-1.433571-11.755285-5.160857-14.47907-10.895142L589.48453 589.341173 414.0154 764.666947c-1.863643 2.007-2.580428 4.730785-2.007 7.311213l35.265855 129.451491c2.293714 7.884642 0.430071 14.765785-5.590929 21.360213L375.595688 989.307574c-4.157357 4.157357-9.748285 6.307714-15.625927 6.307714h-1.433572c-6.594428-0.573429-12.615428-3.870643-16.629427-9.0315l-80.566709-107.374492c-33.115498-44.153997-72.538709-83.433851-116.692706-116.549349l-107.231135-80.279995c-5.160857-3.153857-7.884642-8.601428-9.0315-15.625927-0.430071-6.021 1.576928-11.755285 6.307714-17.346213l66.087638-66.804424c4.157357-4.157357 9.891642-6.451071 15.625928-6.307714 1.863643-0.143357 3.727285 0.143357 5.590928 0.716786l129.451491 35.265854c0.716786 0.143357 1.290214 0.286714 2.007 0.286715 2.007 0 3.870643-0.716786 5.447571-2.150357L434.372113 434.945541 84.580708 242.130197c-6.307714-3.440571-10.608428-9.461571-11.755285-16.629427-0.860143-7.454571 1.0035-13.47557 6.164357-18.636427l88.451351-88.307994c4.587428-4.300714 9.604928-6.594428 14.622428-6.594428 2.150357 0 4.157357 0.286714 6.164356 1.0035L638.799384 220.769985c1.146857 0.286714 2.293714 0.430071 3.583928 0.430071 4.014 0 7.884642-1.576928 10.608428-4.444071l104.363993-104.50735c34.97914-34.97914 74.545709-59.636567 118.699706-74.545709 18.206356-6.021 34.835783-9.031499 49.744925-9.031499 20.786784 0 38.276354 5.877642 52.038639 17.632927 20.213356 23.940641 22.937141 57.916282 8.314714 102.070279-14.622428 44.153997-39.709926 83.720566-74.545709 118.699706l-105.080779 105.080778z" p-id="7002" fill="#FFB72B"></path></svg>